<mxfile host="app.diagrams.net" agent="Mozilla/5.0 (Windows NT 10.0; Win64; x64) AppleWebKit/537.36 (KHTML, like Gecko) Chrome/134.0.0.0 Safari/537.36 Edg/134.0.0.0" version="26.1.3">
  <diagram name="Trang-1" id="skDBLTSptmeuDu9WuiHL">
    <mxGraphModel dx="1684" dy="1169" grid="1" gridSize="10" guides="1" tooltips="1" connect="1" arrows="1" fold="1" page="1" pageScale="1" pageWidth="827" pageHeight="1169" math="0" shadow="0">
      <root>
        <mxCell id="0" />
        <mxCell id="1" parent="0" />
        <mxCell id="fF_B_qAfMbuXPyHHXZiR-1" value="Students" style="rounded=0;whiteSpace=wrap;html=1;" vertex="1" parent="1">
          <mxGeometry x="293" y="130" width="120" height="60" as="geometry" />
        </mxCell>
        <mxCell id="fF_B_qAfMbuXPyHHXZiR-2" value="Classes" style="rounded=0;whiteSpace=wrap;html=1;" vertex="1" parent="1">
          <mxGeometry x="295" y="460" width="120" height="60" as="geometry" />
        </mxCell>
        <mxCell id="fF_B_qAfMbuXPyHHXZiR-3" value="Student_Classes" style="rhombus;whiteSpace=wrap;html=1;" vertex="1" parent="1">
          <mxGeometry x="290" y="280" width="130" height="100" as="geometry" />
        </mxCell>
        <mxCell id="fF_B_qAfMbuXPyHHXZiR-4" value="Subjects" style="rounded=0;whiteSpace=wrap;html=1;" vertex="1" parent="1">
          <mxGeometry x="570" y="460" width="120" height="60" as="geometry" />
        </mxCell>
        <mxCell id="fF_B_qAfMbuXPyHHXZiR-5" value="Grades" style="rhombus;whiteSpace=wrap;html=1;" vertex="1" parent="1">
          <mxGeometry x="520" y="260" width="80" height="80" as="geometry" />
        </mxCell>
        <mxCell id="fF_B_qAfMbuXPyHHXZiR-6" value="Teachers" style="rounded=0;whiteSpace=wrap;html=1;" vertex="1" parent="1">
          <mxGeometry x="40" y="460" width="120" height="60" as="geometry" />
        </mxCell>
        <mxCell id="fF_B_qAfMbuXPyHHXZiR-8" value="" style="endArrow=none;html=1;rounded=0;entryX=0.5;entryY=1;entryDx=0;entryDy=0;exitX=0.5;exitY=0;exitDx=0;exitDy=0;" edge="1" parent="1" source="fF_B_qAfMbuXPyHHXZiR-3" target="fF_B_qAfMbuXPyHHXZiR-1">
          <mxGeometry width="50" height="50" relative="1" as="geometry">
            <mxPoint x="420" y="330" as="sourcePoint" />
            <mxPoint x="470" y="280" as="targetPoint" />
          </mxGeometry>
        </mxCell>
        <mxCell id="fF_B_qAfMbuXPyHHXZiR-9" value="" style="endArrow=none;html=1;rounded=0;exitX=0.5;exitY=1;exitDx=0;exitDy=0;entryX=0.5;entryY=0;entryDx=0;entryDy=0;" edge="1" parent="1" source="fF_B_qAfMbuXPyHHXZiR-3" target="fF_B_qAfMbuXPyHHXZiR-2">
          <mxGeometry width="50" height="50" relative="1" as="geometry">
            <mxPoint x="420" y="330" as="sourcePoint" />
            <mxPoint x="470" y="280" as="targetPoint" />
          </mxGeometry>
        </mxCell>
        <mxCell id="fF_B_qAfMbuXPyHHXZiR-10" value="" style="endArrow=none;html=1;rounded=0;entryX=1;entryY=1;entryDx=0;entryDy=0;exitX=0;exitY=0;exitDx=0;exitDy=0;" edge="1" parent="1" source="fF_B_qAfMbuXPyHHXZiR-5" target="fF_B_qAfMbuXPyHHXZiR-1">
          <mxGeometry width="50" height="50" relative="1" as="geometry">
            <mxPoint x="420" y="330" as="sourcePoint" />
            <mxPoint x="470" y="280" as="targetPoint" />
          </mxGeometry>
        </mxCell>
        <mxCell id="fF_B_qAfMbuXPyHHXZiR-11" value="" style="endArrow=none;html=1;rounded=0;entryX=1;entryY=1;entryDx=0;entryDy=0;exitX=0.5;exitY=0;exitDx=0;exitDy=0;" edge="1" parent="1" source="fF_B_qAfMbuXPyHHXZiR-4" target="fF_B_qAfMbuXPyHHXZiR-5">
          <mxGeometry width="50" height="50" relative="1" as="geometry">
            <mxPoint x="420" y="330" as="sourcePoint" />
            <mxPoint x="470" y="280" as="targetPoint" />
          </mxGeometry>
        </mxCell>
        <mxCell id="fF_B_qAfMbuXPyHHXZiR-12" value="" style="endArrow=none;html=1;rounded=0;exitX=1;exitY=0.5;exitDx=0;exitDy=0;entryX=0;entryY=0.5;entryDx=0;entryDy=0;" edge="1" parent="1" source="fF_B_qAfMbuXPyHHXZiR-6" target="fF_B_qAfMbuXPyHHXZiR-2">
          <mxGeometry width="50" height="50" relative="1" as="geometry">
            <mxPoint x="150.00000000000023" y="419.9999999999998" as="sourcePoint" />
            <mxPoint x="470" y="280" as="targetPoint" />
          </mxGeometry>
        </mxCell>
        <mxCell id="fF_B_qAfMbuXPyHHXZiR-18" value="" style="endArrow=none;html=1;rounded=0;exitX=1;exitY=0.5;exitDx=0;exitDy=0;entryX=0;entryY=0.5;entryDx=0;entryDy=0;" edge="1" parent="1" source="fF_B_qAfMbuXPyHHXZiR-2" target="fF_B_qAfMbuXPyHHXZiR-4">
          <mxGeometry width="50" height="50" relative="1" as="geometry">
            <mxPoint x="420" y="330" as="sourcePoint" />
            <mxPoint x="470" y="280" as="targetPoint" />
          </mxGeometry>
        </mxCell>
        <mxCell id="fF_B_qAfMbuXPyHHXZiR-20" value="TeacherID" style="ellipse;whiteSpace=wrap;html=1;" vertex="1" parent="1">
          <mxGeometry x="-100" y="420" width="80" height="40" as="geometry" />
        </mxCell>
        <mxCell id="fF_B_qAfMbuXPyHHXZiR-21" value="Name" style="ellipse;whiteSpace=wrap;html=1;" vertex="1" parent="1">
          <mxGeometry x="-100" y="360" width="80" height="40" as="geometry" />
        </mxCell>
        <mxCell id="fF_B_qAfMbuXPyHHXZiR-22" value="Department" style="ellipse;whiteSpace=wrap;html=1;" vertex="1" parent="1">
          <mxGeometry x="-100" y="480" width="80" height="40" as="geometry" />
        </mxCell>
        <mxCell id="fF_B_qAfMbuXPyHHXZiR-24" value="Email" style="ellipse;whiteSpace=wrap;html=1;" vertex="1" parent="1">
          <mxGeometry x="-100" y="540" width="80" height="40" as="geometry" />
        </mxCell>
        <mxCell id="fF_B_qAfMbuXPyHHXZiR-25" value="Semester" style="ellipse;whiteSpace=wrap;html=1;" vertex="1" parent="1">
          <mxGeometry x="205" y="564" width="90" height="40" as="geometry" />
        </mxCell>
        <mxCell id="fF_B_qAfMbuXPyHHXZiR-26" value="ClassID" style="ellipse;whiteSpace=wrap;html=1;" vertex="1" parent="1">
          <mxGeometry x="310" y="564" width="90" height="40" as="geometry" />
        </mxCell>
        <mxCell id="fF_B_qAfMbuXPyHHXZiR-27" value="ClassName" style="ellipse;whiteSpace=wrap;html=1;" vertex="1" parent="1">
          <mxGeometry x="420" y="564" width="90" height="40" as="geometry" />
        </mxCell>
        <mxCell id="fF_B_qAfMbuXPyHHXZiR-28" value="Subject_ID" style="ellipse;whiteSpace=wrap;html=1;" vertex="1" parent="1">
          <mxGeometry x="500" y="610" width="90" height="40" as="geometry" />
        </mxCell>
        <mxCell id="fF_B_qAfMbuXPyHHXZiR-29" value="Subject_Name" style="ellipse;whiteSpace=wrap;html=1;" vertex="1" parent="1">
          <mxGeometry x="590" y="610" width="90" height="40" as="geometry" />
        </mxCell>
        <mxCell id="fF_B_qAfMbuXPyHHXZiR-30" value="Credits" style="ellipse;whiteSpace=wrap;html=1;" vertex="1" parent="1">
          <mxGeometry x="680" y="610" width="90" height="40" as="geometry" />
        </mxCell>
        <mxCell id="fF_B_qAfMbuXPyHHXZiR-31" value="" style="endArrow=none;html=1;rounded=0;entryX=0.5;entryY=1;entryDx=0;entryDy=0;exitX=0.5;exitY=0;exitDx=0;exitDy=0;" edge="1" parent="1" source="fF_B_qAfMbuXPyHHXZiR-28" target="fF_B_qAfMbuXPyHHXZiR-4">
          <mxGeometry width="50" height="50" relative="1" as="geometry">
            <mxPoint x="550" y="720" as="sourcePoint" />
            <mxPoint x="600" y="670" as="targetPoint" />
          </mxGeometry>
        </mxCell>
        <mxCell id="fF_B_qAfMbuXPyHHXZiR-32" value="" style="endArrow=none;html=1;rounded=0;entryX=0.5;entryY=1;entryDx=0;entryDy=0;exitX=0.5;exitY=0;exitDx=0;exitDy=0;" edge="1" parent="1" source="fF_B_qAfMbuXPyHHXZiR-29" target="fF_B_qAfMbuXPyHHXZiR-4">
          <mxGeometry width="50" height="50" relative="1" as="geometry">
            <mxPoint x="550" y="720" as="sourcePoint" />
            <mxPoint x="600" y="670" as="targetPoint" />
          </mxGeometry>
        </mxCell>
        <mxCell id="fF_B_qAfMbuXPyHHXZiR-33" value="" style="endArrow=none;html=1;rounded=0;exitX=0.5;exitY=0;exitDx=0;exitDy=0;entryX=0.5;entryY=1;entryDx=0;entryDy=0;" edge="1" parent="1" source="fF_B_qAfMbuXPyHHXZiR-30" target="fF_B_qAfMbuXPyHHXZiR-4">
          <mxGeometry width="50" height="50" relative="1" as="geometry">
            <mxPoint x="550" y="720" as="sourcePoint" />
            <mxPoint x="630" y="530" as="targetPoint" />
          </mxGeometry>
        </mxCell>
        <mxCell id="fF_B_qAfMbuXPyHHXZiR-34" value="Grade" style="ellipse;whiteSpace=wrap;html=1;" vertex="1" parent="1">
          <mxGeometry x="650" y="320" width="90" height="40" as="geometry" />
        </mxCell>
        <mxCell id="fF_B_qAfMbuXPyHHXZiR-35" value="Grade_ID" style="ellipse;whiteSpace=wrap;html=1;" vertex="1" parent="1">
          <mxGeometry x="650" y="230" width="90" height="40" as="geometry" />
        </mxCell>
        <mxCell id="fF_B_qAfMbuXPyHHXZiR-36" value="" style="endArrow=none;html=1;rounded=0;entryX=0;entryY=0.5;entryDx=0;entryDy=0;exitX=1;exitY=0.5;exitDx=0;exitDy=0;" edge="1" parent="1" source="fF_B_qAfMbuXPyHHXZiR-5" target="fF_B_qAfMbuXPyHHXZiR-35">
          <mxGeometry width="50" height="50" relative="1" as="geometry">
            <mxPoint x="470" y="440" as="sourcePoint" />
            <mxPoint x="520" y="390" as="targetPoint" />
          </mxGeometry>
        </mxCell>
        <mxCell id="fF_B_qAfMbuXPyHHXZiR-37" value="" style="endArrow=none;html=1;rounded=0;entryX=1;entryY=0.5;entryDx=0;entryDy=0;exitX=0;exitY=0.5;exitDx=0;exitDy=0;" edge="1" parent="1" source="fF_B_qAfMbuXPyHHXZiR-34" target="fF_B_qAfMbuXPyHHXZiR-5">
          <mxGeometry width="50" height="50" relative="1" as="geometry">
            <mxPoint x="470" y="440" as="sourcePoint" />
            <mxPoint x="520" y="390" as="targetPoint" />
          </mxGeometry>
        </mxCell>
        <mxCell id="fF_B_qAfMbuXPyHHXZiR-38" value="" style="endArrow=none;html=1;rounded=0;exitX=1;exitY=0.5;exitDx=0;exitDy=0;entryX=0;entryY=0.5;entryDx=0;entryDy=0;" edge="1" parent="1" source="fF_B_qAfMbuXPyHHXZiR-21" target="fF_B_qAfMbuXPyHHXZiR-6">
          <mxGeometry width="50" height="50" relative="1" as="geometry">
            <mxPoint x="210" y="400" as="sourcePoint" />
            <mxPoint x="260" y="350" as="targetPoint" />
          </mxGeometry>
        </mxCell>
        <mxCell id="fF_B_qAfMbuXPyHHXZiR-39" value="" style="endArrow=none;html=1;rounded=0;exitX=1;exitY=0.5;exitDx=0;exitDy=0;entryX=0;entryY=0.5;entryDx=0;entryDy=0;" edge="1" parent="1" source="fF_B_qAfMbuXPyHHXZiR-20" target="fF_B_qAfMbuXPyHHXZiR-6">
          <mxGeometry width="50" height="50" relative="1" as="geometry">
            <mxPoint x="210" y="400" as="sourcePoint" />
            <mxPoint x="260" y="350" as="targetPoint" />
          </mxGeometry>
        </mxCell>
        <mxCell id="fF_B_qAfMbuXPyHHXZiR-40" value="" style="endArrow=none;html=1;rounded=0;exitX=1;exitY=0.5;exitDx=0;exitDy=0;entryX=0;entryY=0.5;entryDx=0;entryDy=0;" edge="1" parent="1" source="fF_B_qAfMbuXPyHHXZiR-22" target="fF_B_qAfMbuXPyHHXZiR-6">
          <mxGeometry width="50" height="50" relative="1" as="geometry">
            <mxPoint x="210" y="400" as="sourcePoint" />
            <mxPoint x="30" y="490" as="targetPoint" />
          </mxGeometry>
        </mxCell>
        <mxCell id="fF_B_qAfMbuXPyHHXZiR-41" value="" style="endArrow=none;html=1;rounded=0;exitX=1;exitY=0.5;exitDx=0;exitDy=0;entryX=0;entryY=0.5;entryDx=0;entryDy=0;" edge="1" parent="1" source="fF_B_qAfMbuXPyHHXZiR-24" target="fF_B_qAfMbuXPyHHXZiR-6">
          <mxGeometry width="50" height="50" relative="1" as="geometry">
            <mxPoint x="210" y="400" as="sourcePoint" />
            <mxPoint x="260" y="350" as="targetPoint" />
          </mxGeometry>
        </mxCell>
        <mxCell id="fF_B_qAfMbuXPyHHXZiR-43" value="ClassID" style="ellipse;whiteSpace=wrap;html=1;" vertex="1" parent="1">
          <mxGeometry x="150" y="240" width="90" height="40" as="geometry" />
        </mxCell>
        <mxCell id="fF_B_qAfMbuXPyHHXZiR-44" value="ClassID" style="ellipse;whiteSpace=wrap;html=1;" vertex="1" parent="1">
          <mxGeometry x="150" y="170" width="90" height="40" as="geometry" />
        </mxCell>
        <mxCell id="fF_B_qAfMbuXPyHHXZiR-45" value="ClassID" style="ellipse;whiteSpace=wrap;html=1;" vertex="1" parent="1">
          <mxGeometry x="150" y="100" width="90" height="40" as="geometry" />
        </mxCell>
        <mxCell id="fF_B_qAfMbuXPyHHXZiR-46" value="ClassID" style="ellipse;whiteSpace=wrap;html=1;" vertex="1" parent="1">
          <mxGeometry x="380" y="40" width="90" height="40" as="geometry" />
        </mxCell>
        <mxCell id="fF_B_qAfMbuXPyHHXZiR-47" value="ClassID" style="ellipse;whiteSpace=wrap;html=1;" vertex="1" parent="1">
          <mxGeometry x="270" y="40" width="90" height="40" as="geometry" />
        </mxCell>
        <mxCell id="fF_B_qAfMbuXPyHHXZiR-48" value="ClassID" style="ellipse;whiteSpace=wrap;html=1;" vertex="1" parent="1">
          <mxGeometry x="160" y="40" width="90" height="40" as="geometry" />
        </mxCell>
        <mxCell id="fF_B_qAfMbuXPyHHXZiR-49" value="" style="endArrow=none;html=1;rounded=0;entryX=0.5;entryY=1;entryDx=0;entryDy=0;exitX=0.5;exitY=0;exitDx=0;exitDy=0;" edge="1" parent="1" source="fF_B_qAfMbuXPyHHXZiR-1" target="fF_B_qAfMbuXPyHHXZiR-48">
          <mxGeometry width="50" height="50" relative="1" as="geometry">
            <mxPoint x="290" y="420" as="sourcePoint" />
            <mxPoint x="340" y="370" as="targetPoint" />
          </mxGeometry>
        </mxCell>
        <mxCell id="fF_B_qAfMbuXPyHHXZiR-50" value="" style="endArrow=none;html=1;rounded=0;entryX=0.5;entryY=1;entryDx=0;entryDy=0;exitX=0.5;exitY=0;exitDx=0;exitDy=0;" edge="1" parent="1" source="fF_B_qAfMbuXPyHHXZiR-1" target="fF_B_qAfMbuXPyHHXZiR-47">
          <mxGeometry width="50" height="50" relative="1" as="geometry">
            <mxPoint x="290" y="420" as="sourcePoint" />
            <mxPoint x="340" y="370" as="targetPoint" />
          </mxGeometry>
        </mxCell>
        <mxCell id="fF_B_qAfMbuXPyHHXZiR-51" value="" style="endArrow=none;html=1;rounded=0;entryX=0.5;entryY=1;entryDx=0;entryDy=0;exitX=0.5;exitY=0;exitDx=0;exitDy=0;" edge="1" parent="1" source="fF_B_qAfMbuXPyHHXZiR-1" target="fF_B_qAfMbuXPyHHXZiR-46">
          <mxGeometry width="50" height="50" relative="1" as="geometry">
            <mxPoint x="290" y="420" as="sourcePoint" />
            <mxPoint x="340" y="370" as="targetPoint" />
          </mxGeometry>
        </mxCell>
        <mxCell id="fF_B_qAfMbuXPyHHXZiR-52" value="" style="endArrow=none;html=1;rounded=0;entryX=1;entryY=0.5;entryDx=0;entryDy=0;exitX=0;exitY=0.5;exitDx=0;exitDy=0;" edge="1" parent="1" source="fF_B_qAfMbuXPyHHXZiR-1" target="fF_B_qAfMbuXPyHHXZiR-45">
          <mxGeometry width="50" height="50" relative="1" as="geometry">
            <mxPoint x="290" y="420" as="sourcePoint" />
            <mxPoint x="340" y="370" as="targetPoint" />
          </mxGeometry>
        </mxCell>
        <mxCell id="fF_B_qAfMbuXPyHHXZiR-53" value="" style="endArrow=none;html=1;rounded=0;entryX=1;entryY=0.5;entryDx=0;entryDy=0;exitX=0;exitY=0.5;exitDx=0;exitDy=0;" edge="1" parent="1" source="fF_B_qAfMbuXPyHHXZiR-1" target="fF_B_qAfMbuXPyHHXZiR-44">
          <mxGeometry width="50" height="50" relative="1" as="geometry">
            <mxPoint x="290" y="420" as="sourcePoint" />
            <mxPoint x="340" y="370" as="targetPoint" />
          </mxGeometry>
        </mxCell>
        <mxCell id="fF_B_qAfMbuXPyHHXZiR-54" value="" style="endArrow=none;html=1;rounded=0;entryX=1;entryY=0.5;entryDx=0;entryDy=0;exitX=0;exitY=0.5;exitDx=0;exitDy=0;" edge="1" parent="1" source="fF_B_qAfMbuXPyHHXZiR-1" target="fF_B_qAfMbuXPyHHXZiR-43">
          <mxGeometry width="50" height="50" relative="1" as="geometry">
            <mxPoint x="290" y="420" as="sourcePoint" />
            <mxPoint x="340" y="370" as="targetPoint" />
          </mxGeometry>
        </mxCell>
      </root>
    </mxGraphModel>
  </diagram>
</mxfile>
